<svg width="20" height="20" viewBox="0 0 20 20" fill="none" xmlns="http://www.w3.org/2000/svg">
<mask id="mask0_4667_12480" style="mask-type:alpha" maskUnits="userSpaceOnUse" x="2" y="2" width="16" height="16">
<path d="M10 17.1875C14.1518 17.1875 17.5 13.8393 17.5 9.6875C17.5 5.53571 14.1518 2.1875 10 2.1875C5.84821 2.1875 2.5 5.53571 2.5 9.6875C2.5 13.8393 5.84821 17.1875 10 17.1875ZM9.46433 5.40178C9.46433 5.10713 9.70536 4.86612 10 4.86612C10.2946 4.86612 10.5357 5.10715 10.5357 5.40178L10.5357 11.0268C10.5357 11.3214 10.2946 11.5625 10 11.5625C9.70536 11.5625 9.46433 11.3214 9.46433 11.0268L9.46433 8.21428L9.46433 5.40178ZM10 12.6339C10.4553 12.6339 10.8036 12.9822 10.8036 13.4375C10.8036 13.8929 10.4553 14.2412 10 14.2412C9.54465 14.2412 9.19638 13.8929 9.19638 13.4375C9.19638 12.982 9.54465 12.6339 10 12.6339Z" fill="#F00000"/>
</mask>
<g mask="url(#mask0_4667_12480)">
<rect width="20" height="20" fill="#366DFF"/>
</g>
</svg>
