<svg width="14" height="11" viewBox="0 0 14 11" fill="none" xmlns="http://www.w3.org/2000/svg">
<path d="M13.9678 6.55397L13.5233 10.2732L10.0801 8.79852L11.4801 7.99025C11.4469 7.95871 11.4165 7.92326 11.3895 7.88402L8.25621 3.32353L5.4233 6.41423C5.00638 6.8691 4.28103 6.84155 3.89981 6.35637L0.477265 2.0005C0.249786 1.71099 0.300074 1.29189 0.589586 1.06441C0.879098 0.836929 1.2982 0.887217 1.52568 1.17673L4.70567 5.22389L7.55646 2.11368C7.99102 1.63958 8.75366 1.69302 9.11785 2.22309L12.4885 7.12898C12.5362 7.19839 12.5689 7.27364 12.5875 7.35091L13.9678 6.55397Z" fill="#EA3434"/>
</svg>
