<svg width="20" height="20" viewBox="0 0 20 20" fill="none" xmlns="http://www.w3.org/2000/svg">
<path d="M12.7169 18.5417H7.28356C3.19189 18.5417 1.44189 16.7917 1.44189 12.7V12.5917C1.44189 8.89167 2.90023 7.10833 6.16689 6.8C6.50023 6.775 6.81689 7.025 6.85023 7.36667C6.88356 7.70833 6.63356 8.01667 6.28356 8.05C3.66689 8.29167 2.69189 9.525 2.69189 12.6V12.7083C2.69189 16.1 3.89189 17.3 7.28356 17.3H12.7169C16.1086 17.3 17.3086 16.1 17.3086 12.7083V12.6C17.3086 9.50833 16.3169 8.275 13.6502 8.05C13.3086 8.01667 13.0502 7.71667 13.0836 7.375C13.1169 7.03333 13.4086 6.775 13.7586 6.80833C17.0752 7.09167 18.5586 8.88333 18.5586 12.6083V12.7167C18.5586 16.7917 16.8086 18.5417 12.7169 18.5417Z" fill="#0B8199"/>
<path d="M10 13.025C9.65833 13.025 9.375 12.7417 9.375 12.4V1.66667C9.375 1.325 9.65833 1.04167 10 1.04167C10.3417 1.04167 10.625 1.325 10.625 1.66667V12.4C10.625 12.75 10.3417 13.025 10 13.025Z" fill="#0B8199"/>
<path d="M10 13.9583C9.8417 13.9583 9.68337 13.9 9.55837 13.775L6.7667 10.9833C6.52503 10.7417 6.52503 10.3417 6.7667 10.1C7.00837 9.85833 7.40837 9.85833 7.65003 10.1L10 12.45L12.35 10.1C12.5917 9.85833 12.9917 9.85833 13.2334 10.1C13.475 10.3417 13.475 10.7417 13.2334 10.9833L10.4417 13.775C10.3167 13.9 10.1584 13.9583 10 13.9583Z" fill="#0B8199"/>
</svg>
