<svg width="25" height="24" viewBox="0 0 25 24" fill="none" xmlns="http://www.w3.org/2000/svg">
<path d="M6 7H13" stroke="#292D32" stroke-width="1.5" stroke-linecap="round" stroke-linejoin="round"/>
<path d="M6 12H9" stroke="#292D32" stroke-width="1.5" stroke-linecap="round" stroke-linejoin="round"/>
<path d="M21 17.4495H16" stroke="#292D32" stroke-width="1.5" stroke-miterlimit="10" stroke-linecap="round" stroke-linejoin="round"/>
<path d="M18.5 15V20.0168" stroke="#292D32" stroke-width="1.5" stroke-miterlimit="10" stroke-linecap="round" stroke-linejoin="round"/>
<path d="M21 12.5983L20.6585 13.2661C20.8911 13.385 21.1687 13.3744 21.3914 13.2381C21.6142 13.1018 21.75 12.8594 21.75 12.5983H21ZM14.5538 13.6638L14.0163 13.1407L14.016 13.141L14.5538 13.6638ZM13.7975 20.3325L14.4439 19.9522C14.4413 19.9477 14.4386 19.9433 14.4359 19.9388L13.7975 20.3325ZM14.2673 20.998L14.2784 21.748C14.5676 21.7437 14.8285 21.5735 14.9491 21.3107C15.0696 21.0478 15.0283 20.7391 14.8429 20.5172L14.2673 20.998ZM8 21.75H14V20.25H8V21.75ZM0.25 14C0.25 16.574 0.760201 18.5709 2.09467 19.9053C3.42914 21.2398 5.42603 21.75 8 21.75V20.25C5.57397 20.25 4.07086 19.7602 3.15533 18.8447C2.2398 17.9291 1.75 16.426 1.75 14H0.25ZM0.25 8V14H1.75V8H0.25ZM8 0.25C5.42603 0.25 3.42914 0.760201 2.09467 2.09467C0.760201 3.42914 0.25 5.42603 0.25 8H1.75C1.75 5.57397 2.2398 4.07086 3.15533 3.15533C4.07086 2.2398 5.57397 1.75 8 1.75V0.25ZM14 0.25H8V1.75H14V0.25ZM21.75 8C21.75 5.42603 21.2398 3.42914 19.9053 2.09467C18.5709 0.760201 16.574 0.25 14 0.25V1.75C16.426 1.75 17.9291 2.2398 18.8447 3.15533C19.7602 4.07086 20.25 5.57397 20.25 8H21.75ZM21.75 12.5983V8H20.25V12.5983H21.75ZM18.5 12.75C19.2779 12.75 20.0131 12.936 20.6585 13.2661L21.3415 11.9305C20.4877 11.494 19.5188 11.25 18.5 11.25V12.75ZM15.0912 14.1869C15.9584 13.296 17.169 12.75 18.5 12.75V11.25C16.751 11.25 15.1566 11.9691 14.0163 13.1407L15.0912 14.1869ZM13.75 17.5C13.75 16.2164 14.2608 15.0411 15.0915 14.1866L14.016 13.141C12.9218 14.2665 12.25 15.8136 12.25 17.5H13.75ZM14.4359 19.9388C13.9993 19.2308 13.75 18.3906 13.75 17.5H12.25C12.25 18.6719 12.5782 19.7842 13.1591 20.7262L14.4359 19.9388ZM14.8429 20.5172C14.6936 20.3386 14.5598 20.1491 14.4439 19.9522L13.151 20.7128C13.3096 20.9824 13.4913 21.2389 13.6918 21.4789L14.8429 20.5172ZM14 21.75C14.0937 21.75 14.1865 21.7493 14.2784 21.748L14.2562 20.2481C14.1719 20.2494 14.0865 20.25 14 20.25V21.75Z" fill="#292D32"/>
<path d="M24 17.5C24 17.94 23.945 18.3662 23.835 18.7787C23.7113 19.3287 23.4913 19.865 23.2025 20.3325C22.2538 21.9275 20.5075 23 18.5 23C17.0838 23 15.805 22.4637 14.8425 21.5837C14.43 21.2262 14.0725 20.8 13.7975 20.3325C13.2887 19.5075 13 18.5312 13 17.5C13 16.015 13.5913 14.6538 14.5538 13.6638C15.5575 12.6325 16.96 12 18.5 12C20.1225 12 21.5938 12.7013 22.5838 13.8288C23.4638 14.805 24 16.0975 24 17.5Z" stroke="#292D32" stroke-width="1.5" stroke-miterlimit="10" stroke-linecap="round" stroke-linejoin="round"/>
</svg>
