<svg width="24" height="24" viewBox="0 0 24 24" fill="none" xmlns="http://www.w3.org/2000/svg">
<path d="M20.6719 6.58589V22.4296C20.6719 23.2828 19.9828 23.9718 19.1297 23.9718H4.87031C4.01719 23.9718 3.32812 23.2828 3.32812 22.4296V1.57026C3.32812 0.717139 4.01719 0.0280762 4.87031 0.0280762H14.1141L20.6719 6.58589Z" fill="#23A566"/>
<path d="M15.7922 11.9485H8.20782C7.93595 11.9485 7.71564 12.1688 7.71564 12.4407V19.0454C7.71564 19.3172 7.93595 19.5375 8.20782 19.5375H15.7969C16.0688 19.5375 16.2891 19.3172 16.2891 19.0454V12.4454C16.2844 12.1735 16.0641 11.9485 15.7922 11.9485ZM8.70001 15.1172H11.5078V16.3688H8.70001V15.1172ZM12.4922 15.1172H15.3V16.3688H12.4922V15.1172ZM15.3 14.1329H12.4922V12.9375H15.3V14.1329ZM11.5078 12.9375V14.1329H8.70001V12.9375H11.5078ZM8.70001 17.3579H11.5078V18.5532H8.70001V17.3579ZM12.4922 18.5532V17.3579H15.3V18.5532H12.4922Z" fill="white"/>
<path opacity="0.19" d="M14.9953 6.34687L20.6719 10.9453V6.62812L17.4516 4.75781L14.9953 6.34687Z" fill="black"/>
<path d="M20.6719 6.58589H15.6563C14.8031 6.58589 14.1141 5.89683 14.1141 5.0437V0.0280762L20.6719 6.58589Z" fill="#8ED1B1"/>
</svg>
