<svg width="20" height="20" viewBox="0 0 20 20" fill="none" xmlns="http://www.w3.org/2000/svg">
<path d="M18.3333 14.5833H12.5" stroke="#0B8199" stroke-width="1.5" stroke-miterlimit="10" stroke-linecap="round" stroke-linejoin="round"/>
<path d="M4.1665 14.5833H1.6665" stroke="#0B8199" stroke-width="1.5" stroke-miterlimit="10" stroke-linecap="round" stroke-linejoin="round"/>
<path d="M18.3335 5.41667H15.8335" stroke="#0B8199" stroke-width="1.5" stroke-miterlimit="10" stroke-linecap="round" stroke-linejoin="round"/>
<path d="M7.49984 5.41667H1.6665" stroke="#0B8199" stroke-width="1.5" stroke-miterlimit="10" stroke-linecap="round" stroke-linejoin="round"/>
<path d="M5.83317 12.0833H10.8332C11.7498 12.0833 12.4998 12.5 12.4998 13.75V15.4167C12.4998 16.6667 11.7498 17.0833 10.8332 17.0833H5.83317C4.9165 17.0833 4.1665 16.6667 4.1665 15.4167V13.75C4.1665 12.5 4.9165 12.0833 5.83317 12.0833Z" stroke="#0B8199" stroke-width="1.5" stroke-miterlimit="10" stroke-linecap="round" stroke-linejoin="round"/>
<path d="M9.16667 2.91667H14.1667C15.0833 2.91667 15.8333 3.33333 15.8333 4.58333V6.25C15.8333 7.5 15.0833 7.91667 14.1667 7.91667H9.16667C8.25 7.91667 7.5 7.5 7.5 6.25V4.58333C7.5 3.33333 8.25 2.91667 9.16667 2.91667Z" stroke="#0B8199" stroke-width="1.5" stroke-miterlimit="10" stroke-linecap="round" stroke-linejoin="round"/>
</svg>
