<svg width="20" height="20" viewBox="0 0 20 20" fill="none" xmlns="http://www.w3.org/2000/svg">
<path d="M18.3333 17.7084H1.66663C1.32496 17.7084 1.04163 17.9917 1.04163 18.3334C1.04163 18.675 1.32496 18.9584 1.66663 18.9584H18.3333C18.675 18.9584 18.9583 18.675 18.9583 18.3334C18.9583 17.9917 18.675 17.7084 18.3333 17.7084Z" fill="#0B8199"/>
<path d="M14.1667 1.66663H5.83333C3.33333 1.66663 2.5 3.15829 2.5 4.99996V18.3333H17.5V4.99996C17.5 3.15829 16.6667 1.66663 14.1667 1.66663ZM8.33333 14.375H5.83333C5.49167 14.375 5.20833 14.0916 5.20833 13.75C5.20833 13.4083 5.49167 13.125 5.83333 13.125H8.33333C8.675 13.125 8.95833 13.4083 8.95833 13.75C8.95833 14.0916 8.675 14.375 8.33333 14.375ZM8.33333 10.625H5.83333C5.49167 10.625 5.20833 10.3416 5.20833 9.99996C5.20833 9.65829 5.49167 9.37496 5.83333 9.37496H8.33333C8.675 9.37496 8.95833 9.65829 8.95833 9.99996C8.95833 10.3416 8.675 10.625 8.33333 10.625ZM8.33333 6.87496H5.83333C5.49167 6.87496 5.20833 6.59163 5.20833 6.24996C5.20833 5.90829 5.49167 5.62496 5.83333 5.62496H8.33333C8.675 5.62496 8.95833 5.90829 8.95833 6.24996C8.95833 6.59163 8.675 6.87496 8.33333 6.87496ZM14.1667 14.375H11.6667C11.325 14.375 11.0417 14.0916 11.0417 13.75C11.0417 13.4083 11.325 13.125 11.6667 13.125H14.1667C14.5083 13.125 14.7917 13.4083 14.7917 13.75C14.7917 14.0916 14.5083 14.375 14.1667 14.375ZM14.1667 10.625H11.6667C11.325 10.625 11.0417 10.3416 11.0417 9.99996C11.0417 9.65829 11.325 9.37496 11.6667 9.37496H14.1667C14.5083 9.37496 14.7917 9.65829 14.7917 9.99996C14.7917 10.3416 14.5083 10.625 14.1667 10.625ZM14.1667 6.87496H11.6667C11.325 6.87496 11.0417 6.59163 11.0417 6.24996C11.0417 5.90829 11.325 5.62496 11.6667 5.62496H14.1667C14.5083 5.62496 14.7917 5.90829 14.7917 6.24996C14.7917 6.59163 14.5083 6.87496 14.1667 6.87496Z" fill="#0B8199"/>
</svg>
