<svg width="16" height="16" viewBox="0 0 16 16" fill="none" xmlns="http://www.w3.org/2000/svg">
<mask id="mask0_263_169" style="mask-type:alpha" maskUnits="userSpaceOnUse" x="2" y="1" width="12" height="13">
<path d="M8 13.75C11.3215 13.75 14 11.0714 14 7.75C14 4.42857 11.3214 1.75 8 1.75C4.67857 1.75 2 4.42857 2 7.75C2 11.0714 4.67857 13.75 8 13.75ZM7.57147 4.32143C7.57147 4.0857 7.76429 3.89289 8 3.89289C8.23571 3.89289 8.42853 4.08572 8.42853 4.32143L8.42853 8.82143C8.42853 9.05715 8.23571 9.24996 8 9.24996C7.76429 9.24996 7.57147 9.05714 7.57147 8.82143L7.57147 6.57143L7.57147 4.32143ZM8 10.1071C8.36427 10.1071 8.64289 10.3858 8.64289 10.75C8.64289 11.1143 8.36428 11.3929 8 11.3929C7.63572 11.3929 7.3571 11.1143 7.3571 10.75C7.3571 10.3856 7.63572 10.1071 8 10.1071Z" fill="#F00000"/>
</mask>
<g mask="url(#mask0_263_169)">
<rect width="16" height="16" fill="#EA3434"/>
</g>
</svg>
