<svg width="20" height="20" viewBox="0 0 20 20" fill="none" xmlns="http://www.w3.org/2000/svg">
<path d="M15.8916 15.8917C19.1499 12.6333 19.1499 7.35833 15.8916 4.10833" stroke="#868C9C" stroke-width="1.5" stroke-linecap="round" stroke-linejoin="round"/>
<path d="M4.1083 4.10833C0.849968 7.36666 0.849968 12.6417 4.1083 15.8917" stroke="#868C9C" stroke-width="1.5" stroke-linecap="round" stroke-linejoin="round"/>
<path d="M7.25 17.8416C8.14167 18.15 9.06666 18.3 9.99999 18.3C10.9333 18.2917 11.8583 18.15 12.75 17.8416" stroke="#868C9C" stroke-width="1.5" stroke-linecap="round" stroke-linejoin="round"/>
<path d="M7.25 2.15836C8.14167 1.85002 9.06666 1.69998 9.99999 1.69998C10.9333 1.69998 11.8583 1.85002 12.75 2.15836" stroke="#868C9C" stroke-width="1.5" stroke-linecap="round" stroke-linejoin="round"/>
<path d="M7.2832 10V8.60836C7.2832 6.87503 8.50822 6.16668 10.0082 7.03335L11.2165 7.73337L12.4249 8.43334C13.9249 9.30001 13.9249 10.7167 12.4249 11.5834L11.2165 12.2833L10.0082 12.9834C8.50822 13.85 7.2832 13.1417 7.2832 11.4083V10Z" stroke="#868C9C" stroke-width="1.5" stroke-miterlimit="10" stroke-linecap="round" stroke-linejoin="round"/>
</svg>
