<svg width="20" height="20" viewBox="0 0 20 20" fill="none" xmlns="http://www.w3.org/2000/svg">
<path d="M15.4167 3.42506L11.2583 1.86672C10.5667 1.60839 9.43334 1.60839 8.74167 1.86672L4.58334 3.42506C3.62501 3.78339 2.84167 4.91672 2.84167 5.93339V12.1251C2.84167 13.1084 3.49167 14.4001 4.28334 14.9917L7.86667 17.6667C9.04167 18.5501 10.975 18.5501 12.15 17.6667L15.7333 14.9917C16.525 14.4001 17.175 13.1084 17.175 12.1251V5.93339C17.1583 4.91672 16.375 3.78339 15.4167 3.42506ZM9.94168 5.85839C10.925 5.85839 11.725 6.65839 11.725 7.64172C11.725 8.60839 10.9667 9.38339 10.0083 9.41672H9.99167H9.97501C9.95834 9.41672 9.94167 9.41672 9.92501 9.41672C8.92501 9.38339 8.17501 8.60839 8.17501 7.64172C8.16668 6.65839 8.96668 5.85839 9.94168 5.85839ZM11.825 13.6334C11.3167 13.9667 10.6583 14.1417 10 14.1417C9.34167 14.1417 8.67501 13.9751 8.17501 13.6334C7.70001 13.3167 7.44167 12.8834 7.43334 12.4084C7.43334 11.9417 7.70001 11.4917 8.17501 11.1751C9.18334 10.5084 10.825 10.5084 11.8333 11.1751C12.3083 11.4917 12.575 11.9251 12.575 12.4001C12.5667 12.8667 12.3 13.3167 11.825 13.6334Z" fill="#0B8199"/>
</svg>
