<svg width="14" height="10" viewBox="0 0 14 10" fill="none" xmlns="http://www.w3.org/2000/svg">
<path d="M13.9725 4.3659L13.5278 0.64505L10.0831 2.12035L11.4835 2.92891C11.4503 2.96047 11.4199 2.99596 11.3929 3.03524L8.25793 7.59806L5.4234 4.50559C5.00648 4.05072 4.28113 4.07827 3.89991 4.56345L0.475739 8.92139C0.248261 9.2109 0.298548 9.63 0.58806 9.85748C0.877572 10.085 1.29668 10.0347 1.52415 9.74516L4.70577 5.69593L7.55818 8.80791C7.99274 9.28201 8.75538 9.22857 9.11958 8.6985L12.4918 3.79029C12.5395 3.72083 12.5723 3.64553 12.5908 3.5682L13.9725 4.3659Z" fill="#21C668"/>
</svg>
