<svg width="20" height="20" viewBox="0 0 20 20" fill="none" xmlns="http://www.w3.org/2000/svg">
<path d="M12.7167 18.5417H7.28332C3.19165 18.5417 1.44165 16.7917 1.44165 12.7V12.5917C1.44165 8.89167 2.89998 7.10833 6.16665 6.8C6.49998 6.775 6.81665 7.025 6.84998 7.36667C6.88332 7.70833 6.63332 8.01667 6.28332 8.05C3.66665 8.29167 2.69165 9.525 2.69165 12.6V12.7083C2.69165 16.1 3.89165 17.3 7.28332 17.3H12.7167C16.1083 17.3 17.3083 16.1 17.3083 12.7083V12.6C17.3083 9.50833 16.3166 8.275 13.65 8.05C13.3083 8.01667 13.05 7.71667 13.0833 7.375C13.1166 7.03333 13.4083 6.775 13.7583 6.80833C17.075 7.09167 18.5583 8.88333 18.5583 12.6083V12.7167C18.5583 16.7917 16.8083 18.5417 12.7167 18.5417Z" fill="white"/>
<path d="M10 12.525C9.96985 12.525 9.93857 12.5127 9.91293 12.4871C9.88728 12.4614 9.875 12.4302 9.875 12.4V1.66667C9.875 1.63652 9.88728 1.60524 9.91293 1.5796C9.93857 1.55396 9.96985 1.54167 10 1.54167C10.0301 1.54167 10.0614 1.55396 10.0871 1.5796C10.1127 1.60524 10.125 1.63652 10.125 1.66667V12.4C10.125 12.4695 10.0699 12.525 10 12.525Z" fill="white" stroke="white"/>
<path d="M9.64648 12.8036L10 13.1571L10.3536 12.8036L12.7036 10.4536C12.7251 10.432 12.7558 10.4187 12.7917 10.4187C12.8276 10.4187 12.8583 10.432 12.8798 10.4536C12.9013 10.4751 12.9146 10.5058 12.9146 10.5417C12.9146 10.5775 12.9013 10.6083 12.8798 10.6298L10.0881 13.4214C10.0735 13.4361 10.0594 13.4446 10.0466 13.4497C10.0332 13.4551 10.0177 13.4583 10 13.4583C9.98235 13.4583 9.96683 13.4551 9.9535 13.4497C9.94065 13.4446 9.9266 13.4361 9.91192 13.4214L7.12025 10.6298C7.09873 10.6083 7.08545 10.5775 7.08545 10.5417C7.08545 10.5058 7.09873 10.4751 7.12025 10.4536C7.14178 10.432 7.17251 10.4187 7.20837 10.4187C7.24422 10.4187 7.27495 10.432 7.29648 10.4536L9.64648 12.8036Z" fill="white" stroke="white"/>
</svg>
